<svg width="100" height="20" viewBox="0 0 100 20" fill="none" xmlns="http://www.w3.org/2000/svg">
<path d="M9.99968 13.4183L6.97467 15.245C6.88579 15.2889 6.80329 15.3066 6.72717 15.2983C6.65162 15.2894 6.57801 15.2633 6.50634 15.22C6.43412 15.1755 6.37967 15.1127 6.34301 15.0316C6.30634 14.9505 6.30301 14.8619 6.33301 14.7658L7.13801 11.3408L4.47551 9.03247C4.40051 8.97136 4.35106 8.8983 4.32717 8.8133C4.30329 8.7283 4.30856 8.64692 4.34301 8.56914C4.37745 8.49136 4.42329 8.42747 4.48051 8.37747C4.53829 8.32914 4.61606 8.29636 4.71384 8.27914L8.22717 7.97247L9.59718 4.72914C9.63495 4.63747 9.6894 4.57136 9.76051 4.5308C9.83162 4.49025 9.91134 4.46997 9.99968 4.46997C10.088 4.46997 10.168 4.49025 10.2397 4.5308C10.3113 4.57136 10.3655 4.63747 10.4022 4.72914L11.7722 7.97247L15.2847 8.27914C15.383 8.2958 15.4611 8.32886 15.5188 8.3783C15.5766 8.42719 15.6227 8.4908 15.6572 8.56914C15.6911 8.64692 15.6961 8.7283 15.6722 8.8133C15.6483 8.8983 15.5988 8.97136 15.5238 9.03247L12.8613 11.3408L13.6663 14.7658C13.6975 14.8608 13.6944 14.9491 13.6572 15.0308C13.62 15.1125 13.5652 15.1752 13.493 15.2191C13.4219 15.2636 13.3483 15.29 13.2722 15.2983C13.1966 15.3066 13.1144 15.2889 13.0255 15.245L9.99968 13.4183Z" fill="#05316B"/>
<path d="M29.9997 13.4183L26.9747 15.245C26.8858 15.2889 26.8033 15.3066 26.7272 15.2983C26.6516 15.2894 26.578 15.2633 26.5063 15.22C26.4341 15.1755 26.3797 15.1127 26.343 15.0316C26.3063 14.9505 26.303 14.8619 26.333 14.7658L27.138 11.3408L24.4755 9.03247C24.4005 8.97136 24.3511 8.8983 24.3272 8.8133C24.3033 8.7283 24.3086 8.64692 24.343 8.56914C24.3775 8.49136 24.4233 8.42747 24.4805 8.37747C24.5383 8.32914 24.6161 8.29636 24.7138 8.27914L28.2272 7.97247L29.5972 4.72914C29.635 4.63747 29.6894 4.57136 29.7605 4.5308C29.8316 4.49025 29.9113 4.46997 29.9997 4.46997C30.088 4.46997 30.168 4.49025 30.2397 4.5308C30.3113 4.57136 30.3655 4.63747 30.4022 4.72914L31.7722 7.97247L35.2847 8.27914C35.383 8.2958 35.4611 8.32886 35.5188 8.3783C35.5766 8.42719 35.6227 8.4908 35.6572 8.56914C35.6911 8.64692 35.6961 8.7283 35.6722 8.8133C35.6483 8.8983 35.5988 8.97136 35.5238 9.03247L32.8613 11.3408L33.6663 14.7658C33.6975 14.8608 33.6944 14.9491 33.6572 15.0308C33.62 15.1125 33.5652 15.1752 33.493 15.2191C33.4219 15.2636 33.3483 15.29 33.2722 15.2983C33.1966 15.3066 33.1144 15.2889 33.0255 15.245L29.9997 13.4183Z" fill="#05316B"/>
<path d="M49.9997 13.4183L46.9747 15.245C46.8858 15.2889 46.8033 15.3066 46.7272 15.2983C46.6516 15.2894 46.578 15.2633 46.5063 15.22C46.4341 15.1755 46.3797 15.1127 46.343 15.0316C46.3063 14.9505 46.303 14.8619 46.333 14.7658L47.138 11.3408L44.4755 9.03247C44.4005 8.97136 44.3511 8.8983 44.3272 8.8133C44.3033 8.7283 44.3086 8.64692 44.343 8.56914C44.3775 8.49136 44.4233 8.42747 44.4805 8.37747C44.5383 8.32914 44.6161 8.29636 44.7138 8.27914L48.2272 7.97247L49.5972 4.72914C49.635 4.63747 49.6894 4.57136 49.7605 4.5308C49.8316 4.49025 49.9113 4.46997 49.9997 4.46997C50.088 4.46997 50.168 4.49025 50.2397 4.5308C50.3113 4.57136 50.3655 4.63747 50.4022 4.72914L51.7722 7.97247L55.2847 8.27914C55.383 8.2958 55.4611 8.32886 55.5188 8.3783C55.5766 8.42719 55.6227 8.4908 55.6572 8.56914C55.6911 8.64692 55.6961 8.7283 55.6722 8.8133C55.6483 8.8983 55.5988 8.97136 55.5238 9.03247L52.8613 11.3408L53.6663 14.7658C53.6975 14.8608 53.6944 14.9491 53.6572 15.0308C53.62 15.1125 53.5652 15.1752 53.493 15.2191C53.4219 15.2636 53.3483 15.29 53.2722 15.2983C53.1966 15.3066 53.1144 15.2889 53.0255 15.245L49.9997 13.4183Z" fill="#05316B"/>
<path d="M69.9997 13.4183L66.9747 15.245C66.8858 15.2889 66.8033 15.3066 66.7272 15.2983C66.6516 15.2894 66.578 15.2633 66.5063 15.22C66.4341 15.1755 66.3797 15.1127 66.343 15.0316C66.3063 14.9505 66.303 14.8619 66.333 14.7658L67.138 11.3408L64.4755 9.03247C64.4005 8.97136 64.3511 8.8983 64.3272 8.8133C64.3033 8.7283 64.3086 8.64692 64.343 8.56914C64.3775 8.49136 64.4233 8.42747 64.4805 8.37747C64.5383 8.32914 64.6161 8.29636 64.7138 8.27914L68.2272 7.97247L69.5972 4.72914C69.635 4.63747 69.6894 4.57136 69.7605 4.5308C69.8316 4.49025 69.9113 4.46997 69.9997 4.46997C70.088 4.46997 70.168 4.49025 70.2397 4.5308C70.3113 4.57136 70.3655 4.63747 70.4022 4.72914L71.7722 7.97247L75.2847 8.27914C75.383 8.2958 75.4611 8.32886 75.5188 8.3783C75.5766 8.42719 75.6227 8.4908 75.6572 8.56914C75.6911 8.64692 75.6961 8.7283 75.6722 8.8133C75.6483 8.8983 75.5988 8.97136 75.5238 9.03247L72.8613 11.3408L73.6663 14.7658C73.6975 14.8608 73.6944 14.9491 73.6572 15.0308C73.62 15.1125 73.5652 15.1752 73.493 15.2191C73.4219 15.2636 73.3483 15.29 73.2722 15.2983C73.1966 15.3066 73.1144 15.2889 73.0255 15.245L69.9997 13.4183Z" fill="#05316B"/>
<path d="M89.9997 13.4183L86.9747 15.245C86.8858 15.2889 86.8033 15.3066 86.7272 15.2983C86.6516 15.2894 86.578 15.2633 86.5063 15.22C86.4341 15.1755 86.3797 15.1127 86.343 15.0316C86.3063 14.9505 86.303 14.8619 86.333 14.7658L87.138 11.3408L84.4755 9.03247C84.4005 8.97136 84.3511 8.8983 84.3272 8.8133C84.3033 8.7283 84.3086 8.64692 84.343 8.56914C84.3775 8.49136 84.4233 8.42747 84.4805 8.37747C84.5383 8.32914 84.6161 8.29636 84.7138 8.27914L88.2272 7.97247L89.5972 4.72914C89.635 4.63747 89.6894 4.57136 89.7605 4.5308C89.8316 4.49025 89.9113 4.46997 89.9997 4.46997C90.088 4.46997 90.168 4.49025 90.2397 4.5308C90.3113 4.57136 90.3655 4.63747 90.4022 4.72914L91.7722 7.97247L95.2847 8.27914C95.383 8.2958 95.4611 8.32886 95.5188 8.3783C95.5766 8.42719 95.6227 8.4908 95.6572 8.56914C95.6911 8.64692 95.6961 8.7283 95.6722 8.8133C95.6483 8.8983 95.5988 8.97136 95.5238 9.03247L92.8613 11.3408L93.6663 14.7658C93.6975 14.8608 93.6944 14.9491 93.6572 15.0308C93.62 15.1125 93.5652 15.1752 93.493 15.2191C93.4219 15.2636 93.3483 15.29 93.2722 15.2983C93.1966 15.3066 93.1144 15.2889 93.0255 15.245L89.9997 13.4183Z" fill="#05316B"/>
</svg>
